<mxfile host="65bd71144e">
    <diagram id="BM7hFL4hAiqM9bhNAl1Q" name="第 1 页">
        <mxGraphModel dx="1066" dy="1781" grid="1" gridSize="10" guides="1" tooltips="1" connect="1" arrows="1" fold="1" page="1" pageScale="1" pageWidth="827" pageHeight="1169" math="0" shadow="0">
            <root>
                <mxCell id="0"/>
                <mxCell id="1" parent="0"/>
                <mxCell id="2" value="" style="rounded=0;whiteSpace=wrap;html=1;fillColor=#f0a30a;fontColor=#000000;strokeColor=#BD7000;" parent="1" vertex="1">
                    <mxGeometry x="200" y="-90" width="250" height="490" as="geometry"/>
                </mxCell>
                <mxCell id="5" value="执行栈" style="text;strokeColor=none;align=center;fillColor=none;html=1;verticalAlign=middle;whiteSpace=wrap;rounded=0;fontSize=16;" parent="1" vertex="1">
                    <mxGeometry x="290" y="-130" width="70" height="30" as="geometry"/>
                </mxCell>
                <mxCell id="7" value="" style="rounded=0;whiteSpace=wrap;html=1;fontSize=16;labelBorderColor=#F0F0F0;" parent="1" vertex="1">
                    <mxGeometry x="265" y="270" width="120" height="120" as="geometry"/>
                </mxCell>
                <mxCell id="8" value="全局执行上下文" style="text;strokeColor=none;align=center;fillColor=none;html=1;verticalAlign=middle;whiteSpace=wrap;rounded=0;fontSize=12;" parent="1" vertex="1">
                    <mxGeometry x="290" y="230" width="70" height="30" as="geometry"/>
                </mxCell>
                <mxCell id="9" value="global object" style="rounded=0;whiteSpace=wrap;html=1;labelBorderColor=#F0F0F0;fontSize=12;fillColor=#e51400;fontColor=#ffffff;strokeColor=none;" parent="1" vertex="1">
                    <mxGeometry x="280" y="270" width="90" height="60" as="geometry"/>
                </mxCell>
                <mxCell id="17" style="edgeStyle=none;html=1;entryX=0;entryY=0.5;entryDx=0;entryDy=0;fontSize=12;" parent="1" source="10" target="19" edge="1">
                    <mxGeometry relative="1" as="geometry">
                        <mxPoint x="535.56" y="361.73" as="targetPoint"/>
                    </mxGeometry>
                </mxCell>
                <mxCell id="10" value="开始执行代码" style="rounded=0;whiteSpace=wrap;html=1;labelBorderColor=#F0F0F0;fontSize=12;fillColor=#e51400;fontColor=#ffffff;strokeColor=none;" parent="1" vertex="1">
                    <mxGeometry x="280" y="330" width="90" height="60" as="geometry"/>
                </mxCell>
                <mxCell id="11" value="" style="curved=1;endArrow=classic;html=1;fontSize=12;exitX=1.009;exitY=0.415;exitDx=0;exitDy=0;exitPerimeter=0;entryX=0;entryY=0.5;entryDx=0;entryDy=0;" parent="1" source="7" target="18" edge="1">
                    <mxGeometry width="50" height="50" relative="1" as="geometry">
                        <mxPoint x="435" y="280" as="sourcePoint"/>
                        <mxPoint x="540" y="210" as="targetPoint"/>
                        <Array as="points">
                            <mxPoint x="460" y="320"/>
                            <mxPoint x="460" y="230"/>
                        </Array>
                    </mxGeometry>
                </mxCell>
                <mxCell id="18" value="" style="shape=image;verticalLabelPosition=bottom;labelBackgroundColor=default;verticalAlign=top;aspect=fixed;imageAspect=0;image=data:image/png,iVBORw0KGgoAAAANSUhEUgAAAOYAAACZCAYAAAA7HkavAAAAAXNSR0IArs4c6QAAAARnQU1BAACxjwv8YQUAAAAJcEhZcwAADsMAAA7DAcdvqGQAABSJSURBVHhe7Z1Pqx1FGofzFbJ25yqLoLMIOBBQMZshxqAEo26NJhgSk02QQSIaApcYdDMKSUgwEDWEcMMQgjHcxQyZRUAEd4YRF7PxA/gJarr+db/11lvd1af/nDrn/BYP93ZVdXX1yfv0W33S1XfXnr37FACgLCAmAAUCMQEokDUS8yP15f1/qbs1N9UJsV0Xb6vz31X7f/WRUNeXJY7p9S/VN4OOufrcfbhLqaeaZ9Rdob5k1jJjHvzsfiFiNnSN6cRXXl7Ll6dofblimnF/96U6KNQtk0u3dq+kkB6IGTG3mMLxTt1kck4zpjEoU8zn1ZOfdqk/bz0v1K0GEDNiXjHzyiFmP9ZNzDeuqkM/PFYHTpMywwV1oCo/euVCXEYI9zuu9t95rA5dPK72nL5N2j1S+9+g7fKwgVoFAUcI1nYxXZCTPqRp4zefvc2OKfTnMltrG4c8phbhzFT0vjr/etOua0x8OmyQpKmnuS1tNOz89PFtHb93DmnaLYu1y5hWpqN3rqrnaLkRiwql291W+0ib5y4+Etp4GZu2+64I/Xdgg9EHqcYFRiKDpMUU9nPB1wQTEbduJwikgzs4vmuTCHJ5THY8YiA7eexFI3NMDDGbmfOln6Xczl8A6EXr4Gc3g/00yJjTEE9lIwkzZYqyrSy5FTiUugvpH78tIFJipsrDvhIBbwJakr0hfUFI1bWI6eoCMXuOKf6MbD/R8YLs7LfzMt9wMV9U/3z3nPrfKZnHL0v7dHDyWfXn093qyUmhbkUQ7jHtFNVMQcl2NL0NpqcNkZjB9HcxbFDHGTMVOK0CShkmCPCEBDx4K0x/1ThCRhJTypgZY6LE0tjjxWO21NlRyKophos5IkbIXUr99Ky6JNWvEOKXPyar+UxnBGQZzknZyFuRypgjiGkDhQWSJJhjEjFZsFopw+BNHTddlziWJjhe3pg4KTE7M2FHv5SixPQ4QX+/LNStCKKYVjI7ndXT2EDACnE6OpmYNihzplWelCCtwtbBJUsQ7pvTJmT6McXE0iQE5wTZup3hYk4wlV3f/y6xUh26eLWaxgrfovL7UCflNFPZzGAiJAPWBVzQl8kONAiF47n96MWBB6Q9ZlXWU8x6ehmNiWasvDFxRGnc+XZd6My+0Ywg/vLHnldedp2Pdf5/TH8PmRDLfCHkZLSS8nvREaeyXqgIEujJNjwI+X1WHFQ2KEPi7MH60QKYoF/mmEJEMTVOzgChXXOxsaRk5mPrkn561lnMYkjdFwmZBgQYYTby84GY05OasmVM5TYK/XkIU92c+8R1xD7Ajmdlp0Waem1w0KXgU8/N/nxs1sTqEgDAaEBMAAoEYgJQIBATgAIJxNz/8t/U3r/8NWgAAJgfiAlAgUBMAAoEYgJQIBCzSPia2P7YFUDkeWb+zLJ/Frrn2yTGYJG3WGwaELNIBorJV/9IQMyigZhFMkxME/hjrOqZCIjZDcQskiFijrjcbiIgZjfTiXnkstreuae2jryltrZ31M6O4/q5qO3hrXtNvWb7sjrs68/eqMpuqDPmp66vft97Tl0zv+v+aV/sWFG9xy08HrDAVwqu6M0OZrqot61o/n5PEs70R9qI7fz00yPK1yFmTh8Dxt2sxyXwY2ogZisTi2kFuXbWlTm56m1Xtr31VrPtpfMCeyGNrLruntreJsLXotv9gr7MvpKcc4qpA7G537Nt6P2fEynoK86Y8etcQgGjL3sCpPvNFoH7jJvuH71eRtoPGTOHycUMJJTkEThz3YtYbQcyU2lDMU3WpZnWYNt0HW8R8sVkUvDgldpEYtrtKBuZfamsmo6MWdMlZs64+bHd51L3GV9g6jYQs5UCxOTTT0cgps96dP9QTCMz78NTZ9XxGEtMs08UpCygyTuVYrjU84hpz5WOg+DPx+zDxwcxc1iymF5Kfd/YtIszZqaYUcacjmWIGWVMkTnFjDNmAMRcmCWLKWXQxcQ8bL5ACgWfklHF5AHu2tRiJqaEMvOIKbbh8H0M7rgQs5UyMiaZatZT0p5i+rq8rDn8yx8ulN2uAq6nmJGEblv3RUX0/YdBLjGTmH7/1qzJJfT70LKG+tUoeMFaAfeYrh29HzTZr7eYTX3dl8HvSxkuZhBkGh3gJqB7ilm3833p/W3fVExNIz8hEsuNKyGm2IeBjDN33PwzcIRtbLandWYMUsas3+005N9lPZhOTAB64y+Y8kuzNwmICcoh8y3xmwDEBAXQvIkeryS1QEwACgRiAlAgEBOAAoGYABQIxASgQCAmAAUCMQEoEIgJQIEUI6Z5PlY/2xo8+zoQ8Xnd1ST3z653kfzz773xj895Fn++dZEx+T8vv65PCUHMlSP1p+/zGE9MgnmUrkVM/oeH2eqRYsVc4l/lXu+pLMSMmFtMm+npQ+nu8Tsi5yRjGgOIOREQM2JWMVOBzcohZsxEYtp1kbIQdh2lX5NZT2EdwVpNh1k8rae4Zm2mbyuts3RrNEl/mnAccRtaXx+rbt9gxsoXYvtp2qDFvc1D3CFSFuoQk08bWcAbCfRYg3bp49C+kgGaEDPOlh57f+rPIWtMThI6Ho00JtNfR5v4HrkZJ7+fD5lnSdqkYkqSpaVN7xO91cDLFUjiFklTqaKMKbRxsvvjBq81YYjSDhYzntrZwJBk0aTFjPeL1zfWQUuEjTOW3i8MwNYxJcSM+/W4cblzzhsTQ8xmYb/pdu4zD/qvyvi/4fplTCEr+mA3skjZrkNMJovpk7zjh28bmJhimwraf3qs4TmNhvSP3xoQKTET5awvMeBNm9SFwNE2pt5iujoqZt8xSeMx44gzGj1WvZ2T+drOeWImu8dssoufOroAN8EuvTRrmJhiNmNiim00Jmu6vsjv9hh+TPY84kw/FHf1JoGTngJq2gSUAtlmkWDaGMli+4yDXAdwyDhiChkzZ0wUQZrWKWjdv5BVU6yjmCaojUyVcNXPM9W2CXAqQUAhYpIseeZ69fNste3Pg/Q1Hi5QgkBqy14TiMkD0EkZHKMtSBNipi8w4TlkjYkj1Ldf0DwbLqYJdh3Q1U8jmw54JyiXzDKCmLxfI1y/qawdhxbTXlAOm0zpBBWn4ANJTL/SJMRsFbYJLlECJpYY4AuImdyHtc8ZU4TUd9c+DjlDC6ylmC7z2L8zosvcPVq1LWatgWJyCf12UOYyaHB8vh8Zpx+LOZbeFqS2wZB5BZbIDKaGlJgu4IK+XHYgQRgHpe0vGD8fkwtQfZ69xKywY6KSx+PPGhNHlMbPPjoudP58gv6rY0bHyxiHpv58+lxg25lOTCcaFcrKFMpnpNPtItqzYSRmXeb2N+3tGMLppxtXTZwF7ZhIuReajcEwVMwKG7wxUfAKbXgwRPdZbFzSfVhaco+WzgZpI4ILWgl2TD52frzcMQUks5l0ayC14+NPSEUuSul2TV+d485kQjFBDqn7IlveJ5NuGEaYcj4ff3ERZxQLADGXjM0msZip8k3lxFehhObzyblPnAWXMUccD8RcOvLUq5ygKwU29Szk86mn6QNuZSQgJgAFAjEBKBCICUCBQEwACgRiAlAgEBOsLX/8++Ne5SUBMUExaGFykPb10Pqc30sFYoKVIVco347/5PUlAzHnxj13Gz6/q/HP8E6wgmWZvHtU/bcS4Y8HR9X5vS+pBw901jurHrwrtG1hEZlS++hyTtjmVfXElL+nrlfb17+1bZ58QttMy+qImQxoh3/QPKKwQJ9aTLNapqRzdkH+7atm2wZ5LKaXg0vCxUm182VtSPvxbYu7gJiLyT51/h9nTTuIKdElJsGsDhGXlhVAj/NYiJUQ02Yi2o4K0vd3jq/jP/nv0rZFErN/lh8CxJybDRfTBnm7mHSb/+T1HFou/Z7XTyjmnk/eq9qtlZj+fT8EaU0jWdRsIFIFaywjhIXLFbKYbgH01rl6THpdaN2/a2+2qzGaNy3ocj1eJ1N0vLrcIZ2b9BlUNGLy9aHyOUn95K1rreDjyhq3xj84Pv0qF1mQfuVd0vltWi71UwKTimmCJfmPbrFi0GB0AcjFGpwxm8DWfVgB76lt3Y5kmUBUc0z9FgY9PitQLYOQmeLzddLRsbScR/xZNJj3D9Es6C5mUT9dGTNr3J7licklStWnaKtP9VkSE4qZECzABq4cXHJ2GiymC0ArgQtQEqxBuTumlZGKafuiGcvgRPZBb/vKPw+xfRJ2ofC0ipk37mVAJen7Oy1LwdvRnyUy7VTWBEklg0a6IrsgrdsEsEBpCWhOq5iuPJAgEtOVB8ekIrhMmMCPURzHomImPqt+YuaNexmkZFlEqq4+UmUlMc+XP0FQkcDrIVuftnOJGUnBGE1M//kFfSXGkCFm17iXQUqmlEB9ynPLSmIeMT1RUPYIlKLEDPtKYcbBZwrmWD3FFGVbRMy8cS+DvvKk6nQ5rWvrN9VHCcwrphA0NhhzhLOBmBNU04vp9+m4qLg29bm57d5iJi5o4vFd2+S4csZds/xvZVN0tdf1qTa+vO8xRSZ4daVmQjGb4GmQr+Q2IFlbSUAXdE07EsRRnccfc2Qx6/3Y8ViGDM7N1Nl+asmS4w6PFfRTce2sPR9RMD6uRNZubWOYV8y+SP1oaD1v17Xdn+ZdRGO9ulIzb8YEYCQkoXRZqpz+5KTKcxn71ZUaiAnAIFzGHPmtfRATgAWZ6tWVGogJQIFATAAKBGICUCAQE4ACgZgAFAjEBKBAICYABQIxASgQiLnC7LvyWB29c1U9J9Rlcfq2OvpD1Ycn6uuCOmDqHqn9b9Dy6Xnu4qPquLfVPqFuE9hQMd0D7TvyKo9VYZCYb1xVhyrpDpwW6mog5rLYODHtKo17amvLrrDYVDFN4A/JthMDMcnG2ouplzv55U1u6dOmijl4GjwxEJNsjCqmWWeo1zg200aDsM6SrzUM1gYagW6oM/UaQr1W0q/15Os72bGiekKGmH45z8Lr7Mw9HJsG8imk2dZtjqv9d/S00XHlQrOPh98Tarhcrv9kvaNdTD+F9QiCDBm31IaP2wAxDeOLaQWpg1+SoSoLF/s66bzAXsh6kbF+nSQRvhY9tZA5IWdRYtpArMtcINP7P5tBwr4iuYTjBW0ksQnS/WYyc/UaN93fiUzlzNpvs5hczDDwBXkEgnflBAJRaUMxTdaNVuHbNm2r/NvEHIwgSkrMUAqbsQ5dPJ7YtoRi2oDnbWz/bAwVuVPZLjFzxh22qTCfi+9TELUCYpKN5YjJp5+OQEyf9ej+oZhGZt6Hp86qhFUSM0suu4/PfhwuxyxiujbSeJrPRZYXYpKN+cX0UpJ391TEGTNTzChjtrCmYtb7dDCnmFy6EIgpsWQxpQy6mJiHzRdIoeCtrJyYvI2bAtZyyVPCFHNOZdsvFnIbMz6IaVlaxiRTzXpK2lNMX5edNTPEHPzlT0JCPZXrJWZKQt0XlctcCLpEsMwjpt+ftwvhEtrtsKxmotdFlsby7zFdOyOjphLNZL/eYjb1dV8Gv2+q3iEIPVjMCh+YTaDZ4O0nZlPm+9LtTd9cLidngCBgq5jkAsKpx5Q9bv4ZOILMTi40FWZ/cx5SxpzmdZGlMZ2YAEzEFK+LLA2ICVaMaV4XWRoQE6wMU74usjQgJgAFAjEBKBCICUCBQEwACgRiAlAgEBOAAoGYABQIxJyN8JG66OH2IvFjLnGsp9X37/+qfnntdFj+wm31y9mH6nNaNhTT56/qt4rweHYMuvy392+vyp96L5Rjb6pL//m7ulJzTB2R2o1Kv5UfkyM+5ypRrpifv5OWwdSNJucX6sdISI4T9J0vhLrF2DAxD6qPKxk//tRvv6Q+eFjJ+fBN9WLUdkSMCAUFd7aYZXLitZ87xBtRlFce5kme2y4TTGU/PVZlzQ/VB8eEurGQ1mUuk1UW000rf3xFqKPktuti7cQ0U0Yd8C4r+anj7YNR2xe//rCp19AMZsSpppvmp67XU0+b+WKh2LFyhHP9Nlm0YYxlX4Y2MbOWT9mpsN6Ol5HR/SzNesZwGiouv6qhffH7Yfk4fLmWJjyPfuPOwWTLzPu5tuluNuspphWkDnpJgqrs0tcvNdteOi+wF9LIqus+VJceEuFr0e1+QV9m33Y57UVBbjNMTB7cDH+/2UPMYD/fv7iukQZ+VXaFrbvskTGtUJJIwvGjhdq5486l5xR1DFnWVcwwEwnyCBy57UWstgOZqbShmEaw6F7Rtkkez188hCw+KiNlTB7MfLGzlShjyjyCmKnycEx5487HfhGTPT0dYTprsm7WhSDnS6J8ChCTTz8dgZg+o9H9QzGNzLwPjyiek3yOb2VnEjM74EcQ0xxLynrmXH37kcXsK9oAMe03u/33XXQ/zpLF9FKGcsQZM1PMKGOm8FK2T3NHA2IGbRYWc6GM+bP6/gWhLpPs+9SxvmxyLFlMvm1ZREx7r5iT/fzFYCYpNbNOZWOJIkYQczlTWdxjDqdPxiRTzXpK2lNMX9eVNW3/eVLO8q1sJKHdFr9E6Qxwt29QVu3Lv/zx7aSMx0jK7uQO+jDnSYUfW8yc/8NsKOtbWf8Ssfvq/OtSfciSxWza0fvB4IucbDGb+rovA5HQ9MXrHYLQ84hZ4QLaotvZgO4vJmkb9EfrHV6sGiJfVNfQjEnTXEQs/Fjji+mnjJ1fsow1tRxNzLfV+e/yX40ynZgATMTKPvlz6mb2hR5ighXEiZcQwX4zmiFTDpkZunva7DNm3ouqISZYUayckTBGpJGk9JhsqGXnx/MXiPYLgb8l6vPKTYgJQIFATAAKBGICUCAQE4ACCcQEAJQBxASgQCAmAAUCMQEokFjMk8+qP5/uUqriz1vPh3UAgFlIZ0wn6O+XhToAwKS0TmXvPqwy58M9Yh0AYDogJgAFMlDMc+razo7a2bmhzoj1AIBFgJgAFEirmHsuP6PU093qyUmhDgAwGe1iGvao381/nzyj7or1AICxaRXz0q3dEBKAJTDwHhMAMAUjfflzT20dkeoBAIswUMy31Na2FnNHbW+9JdQDABZh+FT27A2ICcCo7FP/BxJ7cH3c0HtnAAAAAElFTkSuQmCC;" parent="1" vertex="1">
                    <mxGeometry x="540" y="223.5" width="230" height="153" as="geometry"/>
                </mxCell>
                <mxCell id="19" value="" style="shape=image;verticalLabelPosition=bottom;labelBackgroundColor=default;verticalAlign=top;aspect=fixed;imageAspect=0;image=data:image/png,iVBORw0KGgoAAAANSUhEUgAAAL0AAABJCAYAAABo1Cc/AAAAAXNSR0IArs4c6QAAAARnQU1BAACxjwv8YQUAAAAJcEhZcwAADsMAAA7DAcdvqGQAAAitSURBVHhe7Z3NaxVXFMD9F1y7c5WF6CaLgKKCiJjamhCMIvgBQaOpmi4MqQRtDKEao4FQlWeNTVDCqzytJYhBo0hTUHApQjcW+i/4F5zO/Zq5H2fe3PfmmZm8exY/zLv33DsJ/s6Zc8fIbOjY0gkEERIkPREcJD0RHCQ9ERwkPREcJD0RHCQ9ERwk/TrjZO9HePfjv/DuxCw6T2RD0q8Xup7A60j2171P4HeSPhck/bpgNhL9I1S61NckfR5M6XvvwYEXq7DnvDbGmYA90Xh/ZcId0zDXnYbtj1fhwORp6Dhf1eJewvZePS6bwdtvoXZ7FDrOLUBtKfqaswSXe+zYUZiJ5wUz59TcEbi8+Bbmr47yP9nc/NUj0H11ScSy/fW9jGsh84XhIf0PD2BlZQVW5kbw+cCxKr0Qtf/xPdiqj3NpdVlZXBU6tZitky+RGCV6EttZQfbPgEvPxFucgW4+JgROPquxBRiMP3dKoVVyyDXRPiwR+NziEszHyZQkkVin7yXXlkJ8kj4vbnvjCO4pqnOXwBNIJIeZMFlw6Q3BMTERemZgXkpuJ4qREIb04m6R3CEkPCbjehZj33wP/50bwTm8H12TDbU3eUF6etG28LZE++y0PEbLkuBIb7REzeEtvd2SSAzpZbU21uvSy0TB9tHvBsVB0ucFPcjyaqwqNJfbqsxS+CQxItIq/VpJL4VnfbqKQSu9p/ROpS8NJH1eUOmFwKLFYa2NIXcE2qIULD1a+ZuRXrY3RvI0CbU35QSXXgp7YPJe1NogT1vsvl8KX2h7Y4gbobUpjUmv5spa7Rs4yD6dhu+w+cBJkT5C9ewp0vLDrRRdJIDd+699T8/jpOhCYv1Q6i99Mq/vl6wtgp9ORKIz2R3U83uNvml4yqRf+QOu9VlzRB3piXXN8BxJnwZJ346oSk/P6VFI+rZiBH7lbc0KPL12GJknGCQ9ERwkPREcJD0RHCQ9ERyG9F07uwmi7SHpieAg6YngIOmJ4CDpieAg6fMysih+Ga16F/qx+TXm51PmL6S9OXoFjQsZkr5pJmCWyV65CxPVckg/dPQTvBtegiE11vMXF7/WY8aFDknfFGe46LMjyddlqfQmV+DBcFTxT91H5sLFlP74PBx8sQr7R+3Am7Cf/d783E13TMNcdxH21lbh4I2L0DVa0+Jewd7jelw2wxVWUSeSVoLzHCaO2bGy+moIMRlCzoXrE0LSaG7h+hnov/5cxLL99b2MayHzMetAer36x4zDb/yX0x7CqDPX3liVXojaX5uHHXogl1aXlcXVYLcWs+PGKyRGiZ7E7p5D9s+AS8/Ei8XCRGNjizAcf+6WQqvkkGuifVgi8Lnqc1iIkylJIrFO30uuRcUvs/T3ocZ6e7TSk/RS+mjQEdxTVOcugSeQSA4zYbLg0ltSuWIiHLsLC1JyW04jIQzpxd0iuUNIeAx2vZzSfzuI/x9axqkTMImt8UQcaj/Bg334fKggPb1oW3hbon12Wh6jZUlwpDdaoubwlt5uSSSG9LJaG+t16WWiYPvod4OEclZ6fqilpzco6EGWV2NVobncVmWWwieJEZFW6ddKeik869NVDFrpPaV3Kn0q5ZNeCU8HWBxUeiGwaHFYa2PIHYG2KAVLj1b+ZqSX7Y2RPHXJKX2r2xv5mJKETweXXgp78MZ81NogT1vsvl8KX2h7Y4gbobUpjUmv5nyrfYkq/b4leOMtvDrI/gm3TmLz7UuK9BGqZ0+Rlh9upegiAezef+17eh4nRRcS64dSf+mTeX2/ZG3qvMS/NWol8vEkkx7B/QeqQbj1TPx/2me3Bq259iZdeqL9ufSQpMcCiHZFVXp6Tk8EwOiCaGtWnv0CR5H5doekJ4KDpCeCg6QngsOQniBCgKQngoOkJ4KDpCeCo7709hsEG3z/azGolzojrw0immQbvP+wAb482maOD22GL/9sgpo+lhe+5waACPN64ntg4/BhM0zpaxokXXrnxWkF4/39kPRZ9FUvQeXvhKk7u9A4RW05XTQ+1zLxO+CzI7uNlH+5A5nzI1V647WaZaBsSbhO2XnnAlSWD8FONTY+wMUfGzfjFFOPNmZInV/CmOlNfgnkG5dCqvTNvM7+q0LSfyV2wdnlqOJXu9052Wp8nrbGbXzjsii19PYrNRm2lPwzi5FvGeQtR0QFe9ugFaO9o1a8s1af09HfZavaGmxOx76WnUhinr0717x22n514FV0APq2dMNY3XZCipcSo6pzH/uTzbNKPXAIpngs21/bS1buGExmA3ltvfpLeJX37J/rtUDeFCK9fXC1iOXwlh5bZ0smZTUSLBqzk6OBSo++3Jkjr6XvLb+n5AXRWlLEccg6H2IBL8DZATHGBdY+M/qq5me75RBrpMBc9gswtZwkk0oQEacnQZ0qHiMT0olpsG3JKSKnPSo9Lrj+BnLxPlqPKtoC6dPGzZ9VSm8J3lS7x+W1hJYVOq2HFmAyy33kejGnx4mvnX3ju401LhGHWut75IhDpXfL0oIWh98tvJLM58CbTsHS44KhtEB6/jNh1+I/j4ovQPq4VTFBK7ixXpM+ZQ8BJnVyB1HXMWhU4hzSiydAja9tdh1JzyhSeiWr0V5gld5PeqfSp6CET299mqn0G+H9EDLnife5IOddpRztjY9MLZC+lO0NFtOM9NaauvBr1hOeQT29SYrgxiHVU/p4rSFZFOdUZLHW566QJjd6LZ7A+vdZTKVPKrSQV287/KRPqneyF4JcX194QfYz+oT1+/RGI+svWYgVxXCYYELKhqXXxs399HmJllxOnDOXYF7PvpZ1xyqgp49bDcnYuHjq0qj02F6cWHD30aiOkyyyjcg8MOZsN2KKlp4gGEH9iyxBCKTUKZKJJyjNC2jgeWfJ20qR9IQHQnxHRi5pi4RX8CrOEsm+nkq+/ElG0hPBQdITwUHSE8FB0hPBQdITwUHSE8FB0hOB0Qn/A2B4cXmqqmyaAAAAAElFTkSuQmCC;" parent="1" vertex="1">
                    <mxGeometry x="550" y="410" width="189" height="73" as="geometry"/>
                </mxCell>
                <mxCell id="27" style="edgeStyle=none;html=1;exitX=1;exitY=0.25;exitDx=0;exitDy=0;entryX=0;entryY=0.5;entryDx=0;entryDy=0;fontSize=12;" parent="1" source="21" target="26" edge="1">
                    <mxGeometry relative="1" as="geometry"/>
                </mxCell>
                <mxCell id="21" value="" style="rounded=0;whiteSpace=wrap;html=1;fontSize=16;labelBorderColor=#F0F0F0;" parent="1" vertex="1">
                    <mxGeometry x="270" y="30" width="120" height="120" as="geometry"/>
                </mxCell>
                <mxCell id="22" value="函数执行上下文" style="text;strokeColor=none;align=center;fillColor=none;html=1;verticalAlign=middle;whiteSpace=wrap;rounded=0;fontSize=12;" parent="1" vertex="1">
                    <mxGeometry x="295" y="-10" width="70" height="30" as="geometry"/>
                </mxCell>
                <mxCell id="23" value="A O对象+父级作用域" style="rounded=0;whiteSpace=wrap;html=1;labelBorderColor=#F0F0F0;fontSize=12;fillColor=#e51400;fontColor=#ffffff;strokeColor=none;" parent="1" vertex="1">
                    <mxGeometry x="285" y="30" width="90" height="60" as="geometry"/>
                </mxCell>
                <mxCell id="28" style="edgeStyle=none;html=1;entryX=0;entryY=0.5;entryDx=0;entryDy=0;fontSize=12;" parent="1" source="24" target="25" edge="1">
                    <mxGeometry relative="1" as="geometry"/>
                </mxCell>
                <mxCell id="24" value="开始执行代码" style="rounded=0;whiteSpace=wrap;html=1;labelBorderColor=#F0F0F0;fontSize=12;fillColor=#e51400;fontColor=#ffffff;strokeColor=none;" parent="1" vertex="1">
                    <mxGeometry x="285" y="90" width="90" height="60" as="geometry"/>
                </mxCell>
                <mxCell id="25" value="" style="shape=image;verticalLabelPosition=bottom;labelBackgroundColor=default;verticalAlign=top;aspect=fixed;imageAspect=0;image=data:image/png,iVBORw0KGgoAAAANSUhEUgAAAPYAAACcCAYAAABMfVb0AAAAAXNSR0IArs4c6QAAAARnQU1BAACxjwv8YQUAAAAJcEhZcwAADsMAAA7DAcdvqGQAAA8vSURBVHhe7Z3fix1FFsfzL+Q5bz7NQ9B1EQ0GZsQIq4luDEOiwkI0kyjJJnGWxWXd2SSzrm4cg0ISAuOSsAsJGSX+QgZHiaAo7IAIog+GSIQFyfOSv+Bs16++1dWn+lbfW7dv3Zrvw4eZ23WquifcT59TdW9XNk1tvY8AAHkBsQHIEIgNQIZAbAAyBGIDkCFxxD62Qvs++arHu2/T3VxcUrxCO+T1fkbb93DtoD330Po3m+jO5Xuqx4/cRXdubKFr9rFhkWNuIiqonQ9EEHvP2/R4IciOY0zbOAi+Hojdj9mVl2n56x5LF2bYOMO1tUK0b+6iJV9bNLmn6BaEbmRose9+9bO0MnRqN5oJZfrCcVpe20vT5tjinJR7YbEaZ1i6vLmPuCqb09oU09aSM1si3iTyZGix71tOrPSG2CNihg6vFZl7ZWe9TZfFt844x11C4/oBsfsyWrHl3NspdV3x5GsR8zxtf1eUxprlV3p9SpyYT1boPt0mK4fyuEsvrleCc2027rncm4Vqf/zV551z+8ZrQGbDOZrdupMWGktfLZcnxmTZWfFTtIuMO7eXlmSsGN8aS2fgEk7YCvrcdhbXyGztKcFdmsr1YCB2XwYT210scygFCBab6+eKpIWs3ESKY+4NoEXGVkJyIupz2WPraxIiq2OW+GUc0y+EUrLjdHhOHZOSWq8FsyvV1255rPpoSaXQx2lprXfDMDcBFWeL3pCNS/RNpxbTssSOISXE7ksiGZuXuCeRPk9INowgtu949W/VYjsSDzQ1kYI60upM65vTKjhh9Ti6v2qz49TvtXHLqsE5rlELac41StRCVnB5HaEcl1k/xlw9YyZEbF4ilghiy7+JO5f8e0z8GMQuy+oqbCau9LfE9oyh4MTtVQLmPBXaijqE2GplPcIcfQMAsSdFbCNkpRTmMnaY2LWM7cFI7S/TB8nYm2n9CNMWSJR5euZMVikeIkwEsZMsxbmYQcR2+jQiz9kktQBz7BQZrdgeiSsLY4Fil30rIhVxtcyq+oZkd5/A7LnkTcq+zvFk7F6mVYLaJXKY2L0s3BuLQfdvllrR/zPsHlgV74bRil2g5CliJEIiJV5rsa3j1fHsdo11A6nF1dp6VM/nnsupPMYwxy7LYs3ColrNbis2N5aklLj+sZpN7Yag5819vwkWYeFMArH7MrTYAAjwzbO0gNggElpcj3BqRTuSjKEVwgYGYoOIKLk7ebpLZm1xs4DgHBAbgAyB2ABkCMQGIEMgNgAZMpDY2x96lLb+ahvbBgAYPxAbgAyB2ABkCMQGIEMgNvBy8coC3f5ygdZPFq9PHpS/376yi431M0Orq4P065pdtF78fTfPBzz1NgBx/i3DgdjAy4nz88UbcJ5WDxSvD+yjmxB7YOL8W4YDsYEX7s3Y/o0PsQVx/i3DgdjAS+XNOPAbH2IL4vxbhjN2sX3PL6vnuKvPQFef7Wb6lVsX6WelTVzApgs2u3Y/Q68uXaAn9+6nv/7tTTpz9pLkj395rRb7wtE/le0CEf/r+6dl277fHaK/v3GBnnv+D7JN/P7Y7qflz9NvvS3PY8YRfexzue1pot6gcr7oIOeSMkaJLd7E6s2tY1b30QlnvEo7EyPnqeIGYeaoEiOLhSl1axyki1acmffauLJFu6ZgnqLT71+n69c/oNOzXHsY48/YtZ1JBMwmBkUcuxECs8uJoIxlN3JoRgglxBKCCTnFMfHTfm2OCbHN6+0zj0ppzQ3A9BHCPvybPbT42lla/Me58oZh4kw/eyzRdzLktulJ7B6Tb/gya+sbgp3FCzGq/eoxpYilXHpsWzamzFX9bKmZflwWjXVNrchFbE7iQBlr2Z69Sfh2Y/FjxLYl5uTjELKarG3EFj9t6U12NmKLMU0fM46J6Xe+Ko/RV0dfov+y/J4+up/rEw+Z3WpvaP1GtyUukEL0efO7MVwflVEtaWXmdDKme4yL4cRmGOiaxkASc2x37zH5ulaeO+W1oSa2u4VRe0LFdstngy22ybp2f1ds8dMdw2BikkdmSq4EDRVbx4nsZ9NWIl/GtvrxNyBO7EjXNAYSWTxTWVVlWiVwNcMaqat7nPEZuxuxjZzimGgzcULEQcQ2fcw4k4USgM92IWIbgaoyuNKESaTL5QrVccPEjnlN3ZOI2FpSUY7LMtzdpJAvp8cptvvaMIjY4ph7gxiM8ZTi8s3tiNsjRGy+DB5EIl7aKqx4tUwf75rGQTJiKylXaLsow2ur2PV5uJR6jKW4K6dA/C7K57ZimzbTz4w3Ecj5atObuEXGtmJku8i2LSUKksqVWL8W56tl7AjX1A6zeHad/jnPtYeRjthlue0R0902uJC8NhfveI5t4uz5sGhvK7Y9vhlLYPqamPTgyl5NKUSI2AWWXKa/FKS1RPp89lia3kdwBfKGZNpEf9WvkqGjXVM7XryoxL5+8SW2PYSExAZgeDjRyuNDyNYps2fofYgNgEFn65rYvuNpojL2xH+ODUBMPNMDZyqQIr89/YEqwa9foheZ9jZAbAAyBGIDkCEQG4AMgdgAZAjEBiBDIDYAGQKxAcgQiA1AhkBsADIEYk8Y5gES8ZCI/ZDKeJmn5aM/03/+/DO98wjXDroGYk8Q4skw8cTX0fmFZMR+ds8PhdA/0PKezyF2QkDsCUFIbD8OmoTYjxQyH32PnjW/Q+xkGLvYtV1QNNh+2P8sdjJi2wSIbR5yeP/0U2w7iMf4M7aUEdsPi372WKKvT27uWsYOxE6KBEpxRmJsP1zGcOcbTuxp+ugAtyea4quHuD4BoBRPiiTm2Nh+uN32w8OJPSIgdlIksniG7YdNHzNOExAb9CMRsbWkohzH9sN9GU5slOIbgWTEVlJi+2HRZsbzMZzYI6LF4tkwm/SBMNIRuyy3PWJu8O2HuXZD6A0hPmfpnUJmIXQN8/m2zfylaHt6gWYSEhvkj9kMH2KPGogNukNnbHyOPXogNhg9ZgP8gmH+2xoQDsQGIEMgNgAZArEByBCIDUCGQGwAMgRiA5AhEBuADIHYAGQIxJ4g3O+mi++Oi++Qc7Gdse09+rzyPfHP6RQXBzoFYk8I5iEQ82CKeZBkfA+ACNRDIL0nuvQ2xNwDIKBTIPYEYz89xrWPBfn45g+0vI1pA50xdrFrmyVosEtpf2HF+CLWZPEkaHguG5sZdsf4M7aUEbuUin72WKJvP7lFfGoZu/wPBJiMDbG7I4FSnJEYu5SWMb7zmWs0Y4Qzoq2RBGYhbf9Zvh10RhJzbOxS2m6XUjOWQPzuto8Hs5sKVsVTIJHFM+xSavqYcXyYccy4XEz3GKmxaJYKiYitJRXlOHYp9WL6DSd17FLc/E+bkDolkhFbSYldSkWbGc9FxA8ndXxO7Q+X2iyeYZfS0ZOO2GW57RFzg+9SKsay22z63RBGhv5oiwW7lI6VhMQG+YNdSrsCYoPuwC6lnQGxwejBLqWdA7EByBCIDUCGQGwAMgRiA5AhEBuADIHYAGQIxAYgQyA2ABkCsYfg3lO/0HMf/q/k6VOvs3FxmKHDay/T8teG43R4josbFcfo6qEf6bsnjlWOnzg/T7e/XKCb52do6sA+uln8fnt1H52wYnrM0Opq0S5iNOsnubjhuHjFGvvkQXWuK7uqcQ+s0Hfza/SGfSwjIHYUrtLukYttsTjXudhvPPMj/XRohV5w27Q4StBdtC4k8ogthfNKHw91s5mn1QPFa3OzccUukH9TpnJD7CjkLfYLT3zrF4ATm5HItI0iQ7twYsuKoharqpCfnnmTaZtsIHYUMhZblqw/0qcPM22Citi61ObE1oJ1Lra+ofBiF/T7+yaUdMTe/QU9reeqknNXazHunNaNefCcPnbkeyvuF9qxuzqOEbFprKmtr9OOy9WY3Ufsdps+Yrt/2+Uv6F4uLpQ+Yk9fOF60W/PxlZ39YzyxMltzJXhbAsQ28/US7gZh5syGCKW9d5qhmcTdVdMQW4tYEaM4Zoskpf3we3rQtBs5LUlUjH1My1kRSR9jbhw99Nh2DHeNJQ1iy37Vm4u8zmHkbhB7dkUIOkez5bGdtCCEXdtL0/qYktrur2NqN4BhS9X6YlkFS0q14HWQLpZ96/P1aiYWmPHtfgPw8FrjXBtiDwQjkYvOeLWM6UjDCaOyfP2G0FQ21/so/EL6xlQ3kdpx+fdwlUQgPrHn9tJSIejConPciZfyW6L7jk1tfZM+jVWmNmVsX5vMzn1K6hglfobl+PjF9klrIwWui2aEMn3DxHZKeuaGIsfhbjR9rqMutr5peWj8m5vwiS2P29naoDKyEd6XsZcuONLEfMM3CSgF5rKuteAm+9vZ2qCytncOHQLEVky62CVyXC2a1S+22E3VwUAMKbaKEyW7BTMP7yxjJyH2t3T1AaZtQkmmFG9880ctxRmccWKX4o3TjEHwiR1UiqsvutSyM0vEj4OaxPa1dVWK95ljTyJJLJ6Z0rgibiFb77VZobZlUzLZ0gwqdi1G30gqQurszlcWDTcn3S8oaz/5Fv3r4y/o2scf04knmXaDT2wtLbt4VmZkHcNm6DqNn2G3oVFAbhFML55ZK+NqgY1ZPBtyZTx0VXyStk1OQmyJFqCEyXJSXCvGlSVIbCNtBU58feMoqS92udfTwxnP/dsEXOY/+u9Cap/YWlAOR1K1Mt6jlp11ZrdjFEwZr+ef7ldJWxOQWc1XQQ1ceR30kVgbQubXE7htcjpig47wLJTVMnuPaFk7OUKnGpO3bTLE3mjobO3L4vzcWwuQmdzB3xWfwG2TIfZGhFsVL6gtulVQcg9dkqeCLMH7SD3B2yZDbAAyBGIDkCEQG4AMgdgAZMhAYgMA0gZiA5AhEBuADIHYAGTI4GIfuYvu3NhEVHDn8j18DABgLAyfsbXgt84wbQCAsRClFL+2VmTutSm2DQDQPRAbgAyB2ABkCMQGIEOiiD11ZgvRjc20zm4bBADomjhiS6bolvz4awtdY9sBAF0RReyly5shNAAJgTk2ABkCsQHIEIgNQIZAbAAyJILYajUcD4IAkA6Di2093YVsDUBaRCnFAQBpAbEByBCIDUCGQGwAMmQgsbdN7wQAJAzEBiBDIDYAGQKxAcgQiA1AhkBsADIEYgOQIRAbgAyB2ABkCMQGIEMgNgAZArEByBCIDUCGQGwAMgRiA5AhEBuADIHYAGQIxAYgO3bS/wFO0UgSnzHxsQAAAABJRU5ErkJggg==;" parent="1" vertex="1">
                    <mxGeometry x="550" y="30" width="246" height="156" as="geometry"/>
                </mxCell>
                <mxCell id="26" value="" style="shape=image;verticalLabelPosition=bottom;labelBackgroundColor=default;verticalAlign=top;aspect=fixed;imageAspect=0;image=data:image/png,iVBORw0KGgoAAAANSUhEUgAAANIAAAB5CAYAAABMQn9vAAAAAXNSR0IArs4c6QAAAARnQU1BAACxjwv8YQUAAAAJcEhZcwAADsMAAA7DAcdvqGQAAArGSURBVHhe7Z2/qx1FFMfzL6ROl+oVwR8QREwjpFEJL4qgaW0UYkJsgpWEhMCLPEghFkYUhaAijxclhUFeEUgTsEuVJoXgHyD+BePMmTm7M2fP7s6+nbt3995v8cHszo8772U+95zdzIwnds6cNW3cuXMnC60tANtEp0gAgDwgEgAFgEgAFAAiAVAAiLQ2XjZP/zphzHPLX6fNl2odsBQWLdKrN/4xH/32r/no/mPzqlK+c+aOOX/flrs6xD/m/EWt3vQcPIJAm8SCRfKSXLzx2FxSBfnZXLTyXLpRv5734s1Bph3zwkaiF/taGVgiyxXpIgvkhYqFcbzxlR6p2u5PC0TaNLpFeu+eufDHE3P+qiy7Zc7b+x98c6t5LyJt97E59+sTc+H2x2bn6i9RvT/NuffienlQdAlCxH/25c1oVHH5mY1Kz8wb8v6kQKRNoyci+cn/wa/3zEvxfRIhFsDV+8Wcjeq8dPtPpQ7LU9c9+43Sfy8iClXRKZTTtU37LnP9CBJp3ekdRNo0+lO7hjSZk78RzXQpvXCphL1IcWQE6hKp0baPt82TK9fN3yqfmt9f09r0sH/KmOenzIFWBhZJxjOST9koJYuuG+lekq7VNERK0sHj4V8apOlZ8uwz14hEAp0w5tGOXg4WS9bLBooaHElIGBFBgkS1bJa2iDRaJPlKO4YFaX9G0iScHBLqpHmqiQ4WSZZIXgqf3rm0LhHGoqZnqxKpNdqk8uhv54KEX/0c3etjBakdnpE2jjyRggQXbt+zaZ3ylk0+RwWJVpLatb51C5KI9C6OSrOIRgRE2jQyRbLwM1CLCPQCIsjjpZLPUmVE6vp3IC9K9PwTZKpTvzlI5IBIm0a+SKAgEGnTgEhrISxYxVq7jQEirQ0flbD6ezOASAAUACIBUACIBEABIBIABegU6dybb5kzr7yulgEAaiASAAWASAAUACIBUACItAjknrDh+BX60XpIueaR11IO3q08nuPtkp4XEGkRjBRJrs7XgEijgEiLYJxINFHHbl9ZIRAJTMQYkUrtTF4dEGkI7++bw6MHZu/9D83e4ZE5Ogp8d71Rd3fvQV3uONw3u1z+2ff23vfmGv3Xlds/n7luvqU/u/7jvsRnNcqZS+aLnx6bg4cPzRfvauX9aJOhsXOY0id37cXg5xVNEOovqqPW43SMUWXpESmnjxHjrvejRcjPdECkTEgkP6G//SzcCzJU1+He4d6H9TVLwsKxQCSXK3tgDg8jQSsxfbukL2qryTSlSG7i1M8rvk78/BImftJXMyI1t/enwjReLiRoz0sdwg0Zd9y+cdyA1g4RaRhBpEQabbIrXPuOxbHXiXyxZKlIFNXiSEb4On2fdxzyRRKTWE42rU5DJH/d+LantrFcjp6IVNEnUs645WeH30vVZ/MLoaoDkTLJFkmmY4FEJI4qcftUJJJP9sFUUascpUSiNo1JJSZgdCZGEynhNCL5nzUeRwT/PNRGjg8iDSNLJJbIPffU9ZoRKVOkRkRaHesQqRGRVKYUqRmREiCSXj6ILJG0CHU8kXbphUUq5CopKpKckKFOJVJLiqQzjUhqHYlsQ4TPhUiZDIlIUepVpWgDReKyvKg0/mWDFMBf2wkyUKSGNOHa9RWLw/2nk1JjIpG4fWdUktJwm/hezTs3H9q/E/v38vXnyf05Mr9npFAvfp6h6DJYpLq86ovgtjHjRUomhcNNSJqAA0Wq6nFfrr3vOxbJUcsa0RAhjKtFJLUPIhpn7rjl7yCQ1vHRNC6jMWgR6cqPXqRRfy/TMJ1IAAyGv+B+NJ+o5fMBIoH5EiLSDzcv6eUzAiKBGfK5uUsp3WNz94pWPj8gEgAFgEgAFAAiAVAAiARAASASAAWASAAUACIBUACIBEABINIGMXo7QrLGT+uL18mJdXcT4NcEdi2IXS8QiQgLXo/kotplMUokdRGqBCK1sfUi0cpytyJ8z60q316RWldgzwSINGfcloxke8b2ijQ6LVwxEImhfUZuL1CdRhHJ/iGPjxJRnXhzHk340sdxWTJE4o1mx16NnLOvh65dHWV/E7dh5DONQ8oQ+m8tD3SLlO4hUif0mHFrdeS4CYiUbNirJqs2ee29ZKMfS8LCsUAklysrcRwXl81FJD9xqnth4sXPL/4bOu2rIYPyeUkdTcQI7XmpNTIMGnfcXtl4mNVuXkwuUjpRlcmu0DyzgfuJJUtFoqgWRzLC11E/L0Ok0SgTu02kdBLLMxrktScVyU9QWcf3L8ZgyU3t+kTKGXdax0K/F+5TEcsCkZhskWQ6FkhE4qgSt09Fqs560KiiVsSSRMqSwbfh6CKRk3kSkUIdbTz170WXDSIxWSKxRGs4jmtDRara9DClSFKSFIjUTZZIWoQ6nki7Q4/jWpxIsk5IiSoZ9BSpjSlTu2659To0PohkGRKRotSrStEGisRl2VEpQ6TRLxtapHGpzSCR2qRxfcUykLh9E9czjUjcXtZLkdL46/Rexbt3zQ+0LX29B6TM7xkp1CN5HFYMii6DRarLq74IbttWHlAEHC2ShSdSPTH8ZBsmUn2P+3L1qW8pQ5ApQRGmU6RIeEk1puxxy99BIImc0ReDhdrTz6FFpPp8h3UekjKdSACsCP6CW+dBKRAJLJwQkX66a95Ry6cBIoHF8snXPqWbw5HGEAmAAkAkAAoAkQAoAEQCoAAQCYACQCQACgCRACgARNogctfLtSKXEzX64mVJzZXnq6Z1jd9MgEhybd+E/wPn0owSSV0rJ4FIbWy5SH7Rar2QNix8zV0xPjPGiKQueJ0REGlpJKvLl8UYkUanhSsGIjGUQrkJGr71OZVKtj14aNtElWpZ4ghBE30FpwgxHfuScIoQo0zoMePW6shxExApeRapJqk2ae29ZH8SS8LCsUAklysrdIpQwEus18EpQh2RYdC44/ZBvFimrHbzYnKRejf2KTS3mnM/sWSpSCRE41nH12n9PJZdiZJFUCZ2m0jpJJYb5PQNc6lIfoLKOr5/MQZLbmrXJ1LOuNM6Fvq9cJ+KWBaIxGSLJNOxQCISR4y4fSpStUVdQxUlSLnKt3alRMqSwbfh6CKRk3kSkUIdbTz170WXDSIxWSKxROlkPs7hJ0mbXlii7rRvNGsQqWrTw5QiSUlSIFI3WSLJa89xRNrNPkWI5V2xRI6iIsk6ISWqZNBTpDamTO3qaw29Do0PIlmGRKQo9apStIEicVlfVPL950mEU4TGisTtZb0UKY2/Tu9V4BQhhxKBQr34eYaiy2CR6vKqLyKShvqS5QFFQJwi1KQaU/a45e8gkETO6IvBQu3p59AiEk4RAqAIOEUIgNHgFCEARoFThADYMCASAAWASAAUACIBUIBOkQAAeUAkAAoAkQAoAEQCoAD9Il0+bf57fsIYy3/3X9brALDl5EekINSLfaUMgC1nUGp38MhGpkc7ahkA2wxEAqAAhUXi/T8rPPcAgBkCkQAowCCRdvZPGfP8pHl6WSkDYIsZJhKxY17Q6/BT5kAtB2D7GCTSl/dPQiAAFAo/IwGwnazoZcMEZ8QBMCMKi8SHLYojtgDYcMqnduGsOIgEtokBIvm3dd0LVzki4d+RwHbRL1K0+rsrGjWOFgZgixiU2gEAdCASAAWASAAUACIBUACIBEABIBIABYBIABQAIgFQAIgEQAEgEgCjOWv+B09EoTTcpUvOAAAAAElFTkSuQmCC;" parent="1" vertex="1">
                    <mxGeometry x="539.5" y="-131" width="210" height="121" as="geometry"/>
                </mxCell>
            </root>
        </mxGraphModel>
    </diagram>
</mxfile>